# xmcd
#
# Track frame offsets:
#	150
#	13616
#	28721
#	42508
#	61083
#	78730
#	95020
#	111478
#	131349
#	148503
#	165809
#	180358
#	193847
#	208593
#
# Disc length: 2965
#
# Revision: 1
# Processed by: cddbd v1.5.1PL0 Copyright (c) Steve Scherf et al.
# Submitted via: CDex 1.50beta9
# Normalized: r0:TDELIM( - )
#
DISCID=bb0b930e
DTITLE=Various Artist - Hitz - Country - Vol 5
DYEAR=2002
DGENRE=Country
TTITLE0=Brooks and Dunn - My Heart Is Lost To You
TTITLE1=Kenny Chesney - The Good Stuff
TTITLE2=Tracy Byrd - Ten Rounds of Jose Cuervo
TTITLE3=Martina McBride - Where Would You Be
TTITLE4=Joe Nichols - The Impossible
TTITLE5=SheDaisy - Mine All Mine
TTITLE6=Diamond Rio - Beautiful Mess
TTITLE7=Tammy Cochran - Life Happened
TTITLE8=David Nail - Memphis
TTITLE9=James Otto - The Ball
TTITLE10=Eric Heatherly - The Last Man Committed
TTITLE11=Kevin Denny - Cadillac Tears
TTITLE12=Pinmonkey - Barbed Wire And Roses
TTITLE13=Phil Vassar - American Child
EXTD=YEAR: 2002
EXTT0=
EXTT1=
EXTT2=
EXTT3=
EXTT4=
EXTT5=
EXTT6=
EXTT7=
EXTT8=
EXTT9=
EXTT10=
EXTT11=
EXTT12=
EXTT13=
PLAYORDER=
